<mxfile host="app.diagrams.net" modified="2024-03-21T22:07:36.699Z" agent="Mozilla/5.0 (Windows NT 10.0; Win64; x64) AppleWebKit/537.36 (KHTML, like Gecko) Chrome/123.0.0.0 Safari/537.36" etag="wJdBpvEN7yc3X7NBd6x2" version="24.0.7" type="github">
  <diagram id="C5RBs43oDa-KdzZeNtuy" name="Page-1">
    <mxGraphModel dx="1793" dy="933" grid="1" gridSize="10" guides="1" tooltips="1" connect="1" arrows="1" fold="1" page="1" pageScale="1" pageWidth="827" pageHeight="1169" math="0" shadow="0">
      <root>
        <mxCell id="WIyWlLk6GJQsqaUBKTNV-0" />
        <mxCell id="WIyWlLk6GJQsqaUBKTNV-1" parent="WIyWlLk6GJQsqaUBKTNV-0" />
        <mxCell id="K089rmbUdxv0dRks5DoR-0" style="edgeStyle=orthogonalEdgeStyle;rounded=0;orthogonalLoop=1;jettySize=auto;html=1;" parent="WIyWlLk6GJQsqaUBKTNV-1" source="zkfFHV4jXpPFQw0GAbJ--0" target="zkfFHV4jXpPFQw0GAbJ--17" edge="1">
          <mxGeometry relative="1" as="geometry" />
        </mxCell>
        <mxCell id="K089rmbUdxv0dRks5DoR-128" style="edgeStyle=orthogonalEdgeStyle;rounded=0;orthogonalLoop=1;jettySize=auto;html=1;entryX=0.75;entryY=0;entryDx=0;entryDy=0;" parent="WIyWlLk6GJQsqaUBKTNV-1" source="zkfFHV4jXpPFQw0GAbJ--0" target="K089rmbUdxv0dRks5DoR-39" edge="1">
          <mxGeometry relative="1" as="geometry">
            <Array as="points">
              <mxPoint x="84" y="70" />
              <mxPoint x="774" y="70" />
            </Array>
          </mxGeometry>
        </mxCell>
        <mxCell id="zkfFHV4jXpPFQw0GAbJ--0" value="Usuario" style="swimlane;fontStyle=2;align=center;verticalAlign=top;childLayout=stackLayout;horizontal=1;startSize=26;horizontalStack=0;resizeParent=1;resizeLast=0;collapsible=1;marginBottom=0;rounded=0;shadow=0;strokeWidth=1;" parent="WIyWlLk6GJQsqaUBKTNV-1" vertex="1">
          <mxGeometry x="4" y="139.02999999999997" width="160" height="164" as="geometry">
            <mxRectangle x="230" y="140" width="160" height="26" as="alternateBounds" />
          </mxGeometry>
        </mxCell>
        <mxCell id="K089rmbUdxv0dRks5DoR-75" value="rubroSuscripto: Rubro" style="text;align=left;verticalAlign=top;spacingLeft=4;spacingRight=4;overflow=hidden;rotatable=0;points=[[0,0.5],[1,0.5]];portConstraint=eastwest;" parent="zkfFHV4jXpPFQw0GAbJ--0" vertex="1">
          <mxGeometry y="26" width="160" height="26" as="geometry" />
        </mxCell>
        <mxCell id="K089rmbUdxv0dRks5DoR-88" value="nombre" style="text;align=left;verticalAlign=top;spacingLeft=4;spacingRight=4;overflow=hidden;rotatable=0;points=[[0,0.5],[1,0.5]];portConstraint=eastwest;" parent="zkfFHV4jXpPFQw0GAbJ--0" vertex="1">
          <mxGeometry y="52" width="160" height="26" as="geometry" />
        </mxCell>
        <mxCell id="zkfFHV4jXpPFQw0GAbJ--4" value="" style="line;html=1;strokeWidth=1;align=left;verticalAlign=middle;spacingTop=-1;spacingLeft=3;spacingRight=3;rotatable=0;labelPosition=right;points=[];portConstraint=eastwest;" parent="zkfFHV4jXpPFQw0GAbJ--0" vertex="1">
          <mxGeometry y="78" width="160" height="8" as="geometry" />
        </mxCell>
        <mxCell id="zkfFHV4jXpPFQw0GAbJ--5" value="suscrbirse" style="text;align=left;verticalAlign=top;spacingLeft=4;spacingRight=4;overflow=hidden;rotatable=0;points=[[0,0.5],[1,0.5]];portConstraint=eastwest;" parent="zkfFHV4jXpPFQw0GAbJ--0" vertex="1">
          <mxGeometry y="86" width="160" height="26" as="geometry" />
        </mxCell>
        <mxCell id="K089rmbUdxv0dRks5DoR-89" value="registrarCompra()" style="text;align=left;verticalAlign=top;spacingLeft=4;spacingRight=4;overflow=hidden;rotatable=0;points=[[0,0.5],[1,0.5]];portConstraint=eastwest;" parent="zkfFHV4jXpPFQw0GAbJ--0" vertex="1">
          <mxGeometry y="112" width="160" height="26" as="geometry" />
        </mxCell>
        <mxCell id="K089rmbUdxv0dRks5DoR-76" value="conocerRubro()" style="text;align=left;verticalAlign=top;spacingLeft=4;spacingRight=4;overflow=hidden;rotatable=0;points=[[0,0.5],[1,0.5]];portConstraint=eastwest;" parent="zkfFHV4jXpPFQw0GAbJ--0" vertex="1">
          <mxGeometry y="138" width="160" height="26" as="geometry" />
        </mxCell>
        <mxCell id="K089rmbUdxv0dRks5DoR-32" style="edgeStyle=orthogonalEdgeStyle;rounded=0;orthogonalLoop=1;jettySize=auto;html=1;entryX=0.5;entryY=0;entryDx=0;entryDy=0;" parent="WIyWlLk6GJQsqaUBKTNV-1" source="zkfFHV4jXpPFQw0GAbJ--17" target="K089rmbUdxv0dRks5DoR-5" edge="1">
          <mxGeometry relative="1" as="geometry" />
        </mxCell>
        <mxCell id="K089rmbUdxv0dRks5DoR-38" style="edgeStyle=orthogonalEdgeStyle;rounded=0;orthogonalLoop=1;jettySize=auto;html=1;" parent="WIyWlLk6GJQsqaUBKTNV-1" source="zkfFHV4jXpPFQw0GAbJ--17" target="K089rmbUdxv0dRks5DoR-39" edge="1">
          <mxGeometry relative="1" as="geometry">
            <mxPoint x="574" y="208.02999999999975" as="targetPoint" />
          </mxGeometry>
        </mxCell>
        <mxCell id="zkfFHV4jXpPFQw0GAbJ--17" value="Compra" style="swimlane;fontStyle=0;align=center;verticalAlign=top;childLayout=stackLayout;horizontal=1;startSize=26;horizontalStack=0;resizeParent=1;resizeLast=0;collapsible=1;marginBottom=0;rounded=0;shadow=0;strokeWidth=1;" parent="WIyWlLk6GJQsqaUBKTNV-1" vertex="1">
          <mxGeometry x="292" y="100.02999999999999" width="160" height="244" as="geometry">
            <mxRectangle x="550" y="140" width="160" height="26" as="alternateBounds" />
          </mxGeometry>
        </mxCell>
        <mxCell id="K089rmbUdxv0dRks5DoR-44" value="cantidadDeCupones" style="text;html=1;align=left;verticalAlign=middle;whiteSpace=wrap;rounded=0;" parent="zkfFHV4jXpPFQw0GAbJ--17" vertex="1">
          <mxGeometry y="26" width="160" height="30" as="geometry" />
        </mxCell>
        <mxCell id="K089rmbUdxv0dRks5DoR-45" value="tarjetaDeCredito" style="text;html=1;align=left;verticalAlign=middle;whiteSpace=wrap;rounded=0;" parent="zkfFHV4jXpPFQw0GAbJ--17" vertex="1">
          <mxGeometry y="56" width="160" height="30" as="geometry" />
        </mxCell>
        <mxCell id="K089rmbUdxv0dRks5DoR-46" value="condicionesDeCompra" style="text;html=1;align=left;verticalAlign=middle;whiteSpace=wrap;rounded=0;" parent="zkfFHV4jXpPFQw0GAbJ--17" vertex="1">
          <mxGeometry y="86" width="160" height="30" as="geometry" />
        </mxCell>
        <mxCell id="zkfFHV4jXpPFQw0GAbJ--23" value="" style="line;html=1;strokeWidth=1;align=left;verticalAlign=middle;spacingTop=-1;spacingLeft=3;spacingRight=3;rotatable=0;labelPosition=right;points=[];portConstraint=eastwest;" parent="zkfFHV4jXpPFQw0GAbJ--17" vertex="1">
          <mxGeometry y="116" width="160" height="8" as="geometry" />
        </mxCell>
        <mxCell id="K089rmbUdxv0dRks5DoR-95" value="agregarOfertaCompra()" style="text;html=1;align=left;verticalAlign=middle;whiteSpace=wrap;rounded=0;" parent="zkfFHV4jXpPFQw0GAbJ--17" vertex="1">
          <mxGeometry y="124" width="160" height="30" as="geometry" />
        </mxCell>
        <mxCell id="K089rmbUdxv0dRks5DoR-47" value="aceptarCondcionesCompra()" style="text;html=1;align=left;verticalAlign=middle;whiteSpace=wrap;rounded=0;" parent="zkfFHV4jXpPFQw0GAbJ--17" vertex="1">
          <mxGeometry y="154" width="160" height="30" as="geometry" />
        </mxCell>
        <mxCell id="K089rmbUdxv0dRks5DoR-55" value="verificarCuposMinimos()" style="text;html=1;align=left;verticalAlign=middle;whiteSpace=wrap;rounded=0;" parent="zkfFHV4jXpPFQw0GAbJ--17" vertex="1">
          <mxGeometry y="184" width="160" height="30" as="geometry" />
        </mxCell>
        <mxCell id="K089rmbUdxv0dRks5DoR-57" value="cancelarCupones()" style="text;html=1;align=left;verticalAlign=middle;whiteSpace=wrap;rounded=0;" parent="zkfFHV4jXpPFQw0GAbJ--17" vertex="1">
          <mxGeometry y="214" width="160" height="30" as="geometry" />
        </mxCell>
        <mxCell id="K089rmbUdxv0dRks5DoR-33" style="edgeStyle=orthogonalEdgeStyle;rounded=0;orthogonalLoop=1;jettySize=auto;html=1;" parent="WIyWlLk6GJQsqaUBKTNV-1" source="K089rmbUdxv0dRks5DoR-2" edge="1">
          <mxGeometry relative="1" as="geometry">
            <mxPoint x="292" y="622.0300000000005" as="targetPoint" />
          </mxGeometry>
        </mxCell>
        <mxCell id="K089rmbUdxv0dRks5DoR-2" value="Comercio" style="swimlane;fontStyle=2;align=center;verticalAlign=top;childLayout=stackLayout;horizontal=1;startSize=26;horizontalStack=0;resizeParent=1;resizeLast=0;collapsible=1;marginBottom=0;rounded=0;shadow=0;strokeWidth=1;" parent="WIyWlLk6GJQsqaUBKTNV-1" vertex="1">
          <mxGeometry x="4" y="553.0300000000001" width="160" height="138" as="geometry">
            <mxRectangle x="230" y="140" width="160" height="26" as="alternateBounds" />
          </mxGeometry>
        </mxCell>
        <mxCell id="K089rmbUdxv0dRks5DoR-71" value="nombre" style="text;align=left;verticalAlign=top;spacingLeft=4;spacingRight=4;overflow=hidden;rotatable=0;points=[[0,0.5],[1,0.5]];portConstraint=eastwest;" parent="K089rmbUdxv0dRks5DoR-2" vertex="1">
          <mxGeometry y="26" width="160" height="26" as="geometry" />
        </mxCell>
        <mxCell id="K089rmbUdxv0dRks5DoR-3" value="" style="line;html=1;strokeWidth=1;align=left;verticalAlign=middle;spacingTop=-1;spacingLeft=3;spacingRight=3;rotatable=0;labelPosition=right;points=[];portConstraint=eastwest;" parent="K089rmbUdxv0dRks5DoR-2" vertex="1">
          <mxGeometry y="52" width="160" height="8" as="geometry" />
        </mxCell>
        <mxCell id="K089rmbUdxv0dRks5DoR-60" value="registrarOferta()" style="text;align=left;verticalAlign=top;spacingLeft=4;spacingRight=4;overflow=hidden;rotatable=0;points=[[0,0.5],[1,0.5]];portConstraint=eastwest;" parent="K089rmbUdxv0dRks5DoR-2" vertex="1">
          <mxGeometry y="60" width="160" height="26" as="geometry" />
        </mxCell>
        <mxCell id="K089rmbUdxv0dRks5DoR-81" style="edgeStyle=orthogonalEdgeStyle;rounded=0;orthogonalLoop=1;jettySize=auto;html=1;" parent="WIyWlLk6GJQsqaUBKTNV-1" source="K089rmbUdxv0dRks5DoR-5" target="K089rmbUdxv0dRks5DoR-68" edge="1">
          <mxGeometry relative="1" as="geometry" />
        </mxCell>
        <mxCell id="K089rmbUdxv0dRks5DoR-5" value="Oferta" style="swimlane;fontStyle=0;align=center;verticalAlign=top;childLayout=stackLayout;horizontal=1;startSize=26;horizontalStack=0;resizeParent=1;resizeLast=0;collapsible=1;marginBottom=0;rounded=0;shadow=0;strokeWidth=1;" parent="WIyWlLk6GJQsqaUBKTNV-1" vertex="1">
          <mxGeometry x="292" y="450.03" width="160" height="242" as="geometry">
            <mxRectangle x="550" y="140" width="160" height="26" as="alternateBounds" />
          </mxGeometry>
        </mxCell>
        <mxCell id="K089rmbUdxv0dRks5DoR-62" value="fechaCreacion&#xa;" style="text;align=left;verticalAlign=top;spacingLeft=4;spacingRight=4;overflow=hidden;rotatable=0;points=[[0,0.5],[1,0.5]];portConstraint=eastwest;" parent="K089rmbUdxv0dRks5DoR-5" vertex="1">
          <mxGeometry y="26" width="160" height="26" as="geometry" />
        </mxCell>
        <mxCell id="K089rmbUdxv0dRks5DoR-73" value="rubro: Rubro" style="text;align=left;verticalAlign=top;spacingLeft=4;spacingRight=4;overflow=hidden;rotatable=0;points=[[0,0.5],[1,0.5]];portConstraint=eastwest;" parent="K089rmbUdxv0dRks5DoR-5" vertex="1">
          <mxGeometry y="52" width="160" height="26" as="geometry" />
        </mxCell>
        <mxCell id="K089rmbUdxv0dRks5DoR-67" value="descripcionCondiciones" style="text;align=left;verticalAlign=top;spacingLeft=4;spacingRight=4;overflow=hidden;rotatable=0;points=[[0,0.5],[1,0.5]];portConstraint=eastwest;" parent="K089rmbUdxv0dRks5DoR-5" vertex="1">
          <mxGeometry y="78" width="160" height="26" as="geometry" />
        </mxCell>
        <mxCell id="K089rmbUdxv0dRks5DoR-66" value="cuposMinimos" style="text;align=left;verticalAlign=top;spacingLeft=4;spacingRight=4;overflow=hidden;rotatable=0;points=[[0,0.5],[1,0.5]];portConstraint=eastwest;" parent="K089rmbUdxv0dRks5DoR-5" vertex="1">
          <mxGeometry y="104" width="160" height="26" as="geometry" />
        </mxCell>
        <mxCell id="K089rmbUdxv0dRks5DoR-65" value="importe" style="text;align=left;verticalAlign=top;spacingLeft=4;spacingRight=4;overflow=hidden;rotatable=0;points=[[0,0.5],[1,0.5]];portConstraint=eastwest;" parent="K089rmbUdxv0dRks5DoR-5" vertex="1">
          <mxGeometry y="130" width="160" height="26" as="geometry" />
        </mxCell>
        <mxCell id="K089rmbUdxv0dRks5DoR-64" value="rubro" style="text;align=left;verticalAlign=top;spacingLeft=4;spacingRight=4;overflow=hidden;rotatable=0;points=[[0,0.5],[1,0.5]];portConstraint=eastwest;" parent="K089rmbUdxv0dRks5DoR-5" vertex="1">
          <mxGeometry y="156" width="160" height="26" as="geometry" />
        </mxCell>
        <mxCell id="K089rmbUdxv0dRks5DoR-63" value="fechaVigencia" style="text;align=left;verticalAlign=top;spacingLeft=4;spacingRight=4;overflow=hidden;rotatable=0;points=[[0,0.5],[1,0.5]];portConstraint=eastwest;" parent="K089rmbUdxv0dRks5DoR-5" vertex="1">
          <mxGeometry y="182" width="160" height="26" as="geometry" />
        </mxCell>
        <mxCell id="K089rmbUdxv0dRks5DoR-6" value="" style="line;html=1;strokeWidth=1;align=left;verticalAlign=middle;spacingTop=-1;spacingLeft=3;spacingRight=3;rotatable=0;labelPosition=right;points=[];portConstraint=eastwest;" parent="K089rmbUdxv0dRks5DoR-5" vertex="1">
          <mxGeometry y="208" width="160" height="8" as="geometry" />
        </mxCell>
        <mxCell id="K089rmbUdxv0dRks5DoR-85" value="conocerRubro()" style="text;align=left;verticalAlign=top;spacingLeft=4;spacingRight=4;overflow=hidden;rotatable=0;points=[[0,0.5],[1,0.5]];portConstraint=eastwest;" parent="K089rmbUdxv0dRks5DoR-5" vertex="1">
          <mxGeometry y="216" width="160" height="26" as="geometry" />
        </mxCell>
        <mxCell id="K089rmbUdxv0dRks5DoR-9" value="Comercio adherido" style="shape=umlActor;verticalLabelPosition=bottom;verticalAlign=top;html=1;outlineConnect=0;align=center;" parent="WIyWlLk6GJQsqaUBKTNV-1" vertex="1">
          <mxGeometry x="40" y="850" width="30" height="60" as="geometry" />
        </mxCell>
        <mxCell id="K089rmbUdxv0dRks5DoR-11" value="Casos de uso" style="text;html=1;align=center;verticalAlign=middle;whiteSpace=wrap;rounded=0;" parent="WIyWlLk6GJQsqaUBKTNV-1" vertex="1">
          <mxGeometry y="730" width="60" height="30" as="geometry" />
        </mxCell>
        <mxCell id="K089rmbUdxv0dRks5DoR-12" value="" style="endArrow=none;html=1;rounded=0;" parent="WIyWlLk6GJQsqaUBKTNV-1" edge="1">
          <mxGeometry width="50" height="50" relative="1" as="geometry">
            <mxPoint y="729.39" as="sourcePoint" />
            <mxPoint x="820" y="729.39" as="targetPoint" />
          </mxGeometry>
        </mxCell>
        <mxCell id="K089rmbUdxv0dRks5DoR-13" value="1. Registrar oferta" style="ellipse;whiteSpace=wrap;html=1;" parent="WIyWlLk6GJQsqaUBKTNV-1" vertex="1">
          <mxGeometry x="170" y="770" width="90" height="50" as="geometry" />
        </mxCell>
        <mxCell id="K089rmbUdxv0dRks5DoR-15" value="" style="curved=1;endArrow=classic;html=1;rounded=0;entryX=0.042;entryY=0.334;entryDx=0;entryDy=0;entryPerimeter=0;" parent="WIyWlLk6GJQsqaUBKTNV-1" source="K089rmbUdxv0dRks5DoR-9" target="K089rmbUdxv0dRks5DoR-13" edge="1">
          <mxGeometry width="50" height="50" relative="1" as="geometry">
            <mxPoint x="270" y="940" as="sourcePoint" />
            <mxPoint x="320" y="890" as="targetPoint" />
            <Array as="points">
              <mxPoint x="100" y="800" />
            </Array>
          </mxGeometry>
        </mxCell>
        <mxCell id="K089rmbUdxv0dRks5DoR-16" value="2. Validar cupon" style="ellipse;whiteSpace=wrap;html=1;" parent="WIyWlLk6GJQsqaUBKTNV-1" vertex="1">
          <mxGeometry x="170" y="855" width="90" height="50" as="geometry" />
        </mxCell>
        <mxCell id="K089rmbUdxv0dRks5DoR-17" value="" style="curved=1;endArrow=classic;html=1;rounded=0;entryX=-0.012;entryY=0.399;entryDx=0;entryDy=0;entryPerimeter=0;" parent="WIyWlLk6GJQsqaUBKTNV-1" source="K089rmbUdxv0dRks5DoR-9" target="K089rmbUdxv0dRks5DoR-16" edge="1">
          <mxGeometry width="50" height="50" relative="1" as="geometry">
            <mxPoint x="200" y="1020" as="sourcePoint" />
            <mxPoint x="250" y="970" as="targetPoint" />
            <Array as="points">
              <mxPoint x="130" y="880" />
            </Array>
          </mxGeometry>
        </mxCell>
        <mxCell id="K089rmbUdxv0dRks5DoR-18" value="3. Generar reporte" style="ellipse;whiteSpace=wrap;html=1;" parent="WIyWlLk6GJQsqaUBKTNV-1" vertex="1">
          <mxGeometry x="170" y="930" width="90" height="50" as="geometry" />
        </mxCell>
        <mxCell id="K089rmbUdxv0dRks5DoR-19" value="" style="curved=1;endArrow=classic;html=1;rounded=0;entryX=-0.012;entryY=0.403;entryDx=0;entryDy=0;entryPerimeter=0;" parent="WIyWlLk6GJQsqaUBKTNV-1" source="K089rmbUdxv0dRks5DoR-9" target="K089rmbUdxv0dRks5DoR-18" edge="1">
          <mxGeometry width="50" height="50" relative="1" as="geometry">
            <mxPoint x="150" y="1030" as="sourcePoint" />
            <mxPoint x="200" y="980" as="targetPoint" />
            <Array as="points">
              <mxPoint x="110" y="910" />
              <mxPoint x="150" y="930" />
            </Array>
          </mxGeometry>
        </mxCell>
        <mxCell id="K089rmbUdxv0dRks5DoR-130" style="edgeStyle=orthogonalEdgeStyle;rounded=0;orthogonalLoop=1;jettySize=auto;html=1;" parent="WIyWlLk6GJQsqaUBKTNV-1" source="K089rmbUdxv0dRks5DoR-20" target="K089rmbUdxv0dRks5DoR-24" edge="1">
          <mxGeometry relative="1" as="geometry" />
        </mxCell>
        <mxCell id="K089rmbUdxv0dRks5DoR-132" style="edgeStyle=orthogonalEdgeStyle;rounded=0;orthogonalLoop=1;jettySize=auto;html=1;entryX=0;entryY=0.5;entryDx=0;entryDy=0;" parent="WIyWlLk6GJQsqaUBKTNV-1" source="K089rmbUdxv0dRks5DoR-20" target="K089rmbUdxv0dRks5DoR-28" edge="1">
          <mxGeometry relative="1" as="geometry" />
        </mxCell>
        <mxCell id="K089rmbUdxv0dRks5DoR-20" value="usuario" style="shape=umlActor;verticalLabelPosition=bottom;verticalAlign=top;html=1;outlineConnect=0;align=center;" parent="WIyWlLk6GJQsqaUBKTNV-1" vertex="1">
          <mxGeometry x="478" y="765" width="30" height="60" as="geometry" />
        </mxCell>
        <mxCell id="K089rmbUdxv0dRks5DoR-21" value="6.iniciar sesion" style="ellipse;whiteSpace=wrap;html=1;" parent="WIyWlLk6GJQsqaUBKTNV-1" vertex="1">
          <mxGeometry x="590" y="820" width="90" height="50" as="geometry" />
        </mxCell>
        <mxCell id="K089rmbUdxv0dRks5DoR-22" value="" style="curved=1;endArrow=classic;html=1;rounded=0;" parent="WIyWlLk6GJQsqaUBKTNV-1" source="K089rmbUdxv0dRks5DoR-20" target="K089rmbUdxv0dRks5DoR-21" edge="1">
          <mxGeometry width="50" height="50" relative="1" as="geometry">
            <mxPoint x="580" y="900" as="sourcePoint" />
            <mxPoint x="630" y="850" as="targetPoint" />
            <Array as="points">
              <mxPoint x="510" y="795" />
              <mxPoint x="550" y="790" />
              <mxPoint x="540" y="845" />
            </Array>
          </mxGeometry>
        </mxCell>
        <mxCell id="K089rmbUdxv0dRks5DoR-23" value="4. Registrar comercio" style="ellipse;whiteSpace=wrap;html=1;" parent="WIyWlLk6GJQsqaUBKTNV-1" vertex="1">
          <mxGeometry x="180" y="1020" width="90" height="50" as="geometry" />
        </mxCell>
        <mxCell id="K089rmbUdxv0dRks5DoR-24" value="5.Registrar usuario" style="ellipse;whiteSpace=wrap;html=1;" parent="WIyWlLk6GJQsqaUBKTNV-1" vertex="1">
          <mxGeometry x="590" y="730" width="90" height="50" as="geometry" />
        </mxCell>
        <mxCell id="K089rmbUdxv0dRks5DoR-25" value="7.Registrar compra de cupoones" style="ellipse;whiteSpace=wrap;html=1;" parent="WIyWlLk6GJQsqaUBKTNV-1" vertex="1">
          <mxGeometry x="590" y="880" width="90" height="50" as="geometry" />
        </mxCell>
        <mxCell id="K089rmbUdxv0dRks5DoR-26" style="edgeStyle=orthogonalEdgeStyle;rounded=0;orthogonalLoop=1;jettySize=auto;html=1;entryX=0.049;entryY=0.217;entryDx=0;entryDy=0;entryPerimeter=0;" parent="WIyWlLk6GJQsqaUBKTNV-1" source="K089rmbUdxv0dRks5DoR-20" target="K089rmbUdxv0dRks5DoR-25" edge="1">
          <mxGeometry relative="1" as="geometry">
            <Array as="points">
              <mxPoint x="530" y="795" />
              <mxPoint x="530" y="891" />
            </Array>
          </mxGeometry>
        </mxCell>
        <mxCell id="K089rmbUdxv0dRks5DoR-27" value="8.consultar cupones adquiridos" style="ellipse;whiteSpace=wrap;html=1;" parent="WIyWlLk6GJQsqaUBKTNV-1" vertex="1">
          <mxGeometry x="590" y="950" width="90" height="50" as="geometry" />
        </mxCell>
        <mxCell id="K089rmbUdxv0dRks5DoR-28" value="9.generar reporte del importe ahorrado" style="ellipse;whiteSpace=wrap;html=1;" parent="WIyWlLk6GJQsqaUBKTNV-1" vertex="1">
          <mxGeometry x="590" y="1030" width="130" height="50" as="geometry" />
        </mxCell>
        <mxCell id="K089rmbUdxv0dRks5DoR-59" style="edgeStyle=orthogonalEdgeStyle;rounded=0;orthogonalLoop=1;jettySize=auto;html=1;entryX=0.5;entryY=0;entryDx=0;entryDy=0;" parent="WIyWlLk6GJQsqaUBKTNV-1" source="K089rmbUdxv0dRks5DoR-39" target="K089rmbUdxv0dRks5DoR-48" edge="1">
          <mxGeometry relative="1" as="geometry" />
        </mxCell>
        <mxCell id="K089rmbUdxv0dRks5DoR-39" value="cuponGenerado" style="swimlane;fontStyle=0;align=center;verticalAlign=top;childLayout=stackLayout;horizontal=1;startSize=26;horizontalStack=0;resizeParent=1;resizeLast=0;collapsible=1;marginBottom=0;rounded=0;shadow=0;strokeWidth=1;" parent="WIyWlLk6GJQsqaUBKTNV-1" vertex="1">
          <mxGeometry x="654" y="100.02999999999999" width="160" height="216" as="geometry">
            <mxRectangle x="550" y="140" width="160" height="26" as="alternateBounds" />
          </mxGeometry>
        </mxCell>
        <mxCell id="K089rmbUdxv0dRks5DoR-91" value="estado: Estado" style="text;html=1;align=left;verticalAlign=middle;whiteSpace=wrap;rounded=0;" parent="K089rmbUdxv0dRks5DoR-39" vertex="1">
          <mxGeometry y="26" width="160" height="30" as="geometry" />
        </mxCell>
        <mxCell id="K089rmbUdxv0dRks5DoR-40" value="" style="line;html=1;strokeWidth=1;align=left;verticalAlign=middle;spacingTop=-1;spacingLeft=3;spacingRight=3;rotatable=0;labelPosition=right;points=[];portConstraint=eastwest;" parent="K089rmbUdxv0dRks5DoR-39" vertex="1">
          <mxGeometry y="56" width="160" height="8" as="geometry" />
        </mxCell>
        <mxCell id="K089rmbUdxv0dRks5DoR-58" value="cancelarCupones()" style="text;html=1;align=left;verticalAlign=middle;whiteSpace=wrap;rounded=0;" parent="K089rmbUdxv0dRks5DoR-39" vertex="1">
          <mxGeometry y="64" width="160" height="30" as="geometry" />
        </mxCell>
        <mxCell id="K089rmbUdxv0dRks5DoR-48" value="Estado" style="swimlane;fontStyle=0;align=center;verticalAlign=top;childLayout=stackLayout;horizontal=1;startSize=26;horizontalStack=0;resizeParent=1;resizeLast=0;collapsible=1;marginBottom=0;rounded=0;shadow=0;strokeWidth=1;" parent="WIyWlLk6GJQsqaUBKTNV-1" vertex="1">
          <mxGeometry x="664" y="370.08" width="160" height="154" as="geometry">
            <mxRectangle x="550" y="140" width="160" height="26" as="alternateBounds" />
          </mxGeometry>
        </mxCell>
        <mxCell id="K089rmbUdxv0dRks5DoR-50" value="pendiente" style="text;html=1;align=left;verticalAlign=middle;whiteSpace=wrap;rounded=0;" parent="K089rmbUdxv0dRks5DoR-48" vertex="1">
          <mxGeometry y="26" width="160" height="30" as="geometry" />
        </mxCell>
        <mxCell id="K089rmbUdxv0dRks5DoR-93" value="valido" style="text;html=1;align=left;verticalAlign=middle;whiteSpace=wrap;rounded=0;" parent="K089rmbUdxv0dRks5DoR-48" vertex="1">
          <mxGeometry y="56" width="160" height="30" as="geometry" />
        </mxCell>
        <mxCell id="K089rmbUdxv0dRks5DoR-51" value="invalido" style="text;html=1;align=left;verticalAlign=middle;whiteSpace=wrap;rounded=0;" parent="K089rmbUdxv0dRks5DoR-48" vertex="1">
          <mxGeometry y="86" width="160" height="30" as="geometry" />
        </mxCell>
        <mxCell id="K089rmbUdxv0dRks5DoR-49" value="" style="line;html=1;strokeWidth=1;align=left;verticalAlign=middle;spacingTop=-1;spacingLeft=3;spacingRight=3;rotatable=0;labelPosition=right;points=[];portConstraint=eastwest;" parent="K089rmbUdxv0dRks5DoR-48" vertex="1">
          <mxGeometry y="116" width="160" height="8" as="geometry" />
        </mxCell>
        <mxCell id="K089rmbUdxv0dRks5DoR-92" value="getNombre()" style="text;html=1;align=left;verticalAlign=middle;whiteSpace=wrap;rounded=0;" parent="K089rmbUdxv0dRks5DoR-48" vertex="1">
          <mxGeometry y="124" width="160" height="30" as="geometry" />
        </mxCell>
        <mxCell id="K089rmbUdxv0dRks5DoR-61" value="1..*" style="text;html=1;align=center;verticalAlign=middle;whiteSpace=wrap;rounded=0;" parent="WIyWlLk6GJQsqaUBKTNV-1" vertex="1">
          <mxGeometry x="232" y="594.0300000000001" width="60" height="30" as="geometry" />
        </mxCell>
        <mxCell id="K089rmbUdxv0dRks5DoR-68" value="Rubro" style="swimlane;fontStyle=2;align=center;verticalAlign=top;childLayout=stackLayout;horizontal=1;startSize=26;horizontalStack=0;resizeParent=1;resizeLast=0;collapsible=1;marginBottom=0;rounded=0;shadow=0;strokeWidth=1;" parent="WIyWlLk6GJQsqaUBKTNV-1" vertex="1">
          <mxGeometry x="38" y="340.03" width="160" height="138" as="geometry">
            <mxRectangle x="230" y="140" width="160" height="26" as="alternateBounds" />
          </mxGeometry>
        </mxCell>
        <mxCell id="K089rmbUdxv0dRks5DoR-78" value="gastronomia" style="text;align=left;verticalAlign=top;spacingLeft=4;spacingRight=4;overflow=hidden;rotatable=0;points=[[0,0.5],[1,0.5]];portConstraint=eastwest;" parent="K089rmbUdxv0dRks5DoR-68" vertex="1">
          <mxGeometry y="26" width="160" height="26" as="geometry" />
        </mxCell>
        <mxCell id="K089rmbUdxv0dRks5DoR-79" value="fotografia" style="text;align=left;verticalAlign=top;spacingLeft=4;spacingRight=4;overflow=hidden;rotatable=0;points=[[0,0.5],[1,0.5]];portConstraint=eastwest;" parent="K089rmbUdxv0dRks5DoR-68" vertex="1">
          <mxGeometry y="52" width="160" height="26" as="geometry" />
        </mxCell>
        <mxCell id="K089rmbUdxv0dRks5DoR-80" value="deporte" style="text;align=left;verticalAlign=top;spacingLeft=4;spacingRight=4;overflow=hidden;rotatable=0;points=[[0,0.5],[1,0.5]];portConstraint=eastwest;" parent="K089rmbUdxv0dRks5DoR-68" vertex="1">
          <mxGeometry y="78" width="160" height="26" as="geometry" />
        </mxCell>
        <mxCell id="K089rmbUdxv0dRks5DoR-69" value="" style="line;html=1;strokeWidth=1;align=left;verticalAlign=middle;spacingTop=-1;spacingLeft=3;spacingRight=3;rotatable=0;labelPosition=right;points=[];portConstraint=eastwest;" parent="K089rmbUdxv0dRks5DoR-68" vertex="1">
          <mxGeometry y="104" width="160" height="8" as="geometry" />
        </mxCell>
        <mxCell id="K089rmbUdxv0dRks5DoR-70" value="mostrarRubro()" style="text;align=left;verticalAlign=top;spacingLeft=4;spacingRight=4;overflow=hidden;rotatable=0;points=[[0,0.5],[1,0.5]];portConstraint=eastwest;" parent="K089rmbUdxv0dRks5DoR-68" vertex="1">
          <mxGeometry y="112" width="160" height="26" as="geometry" />
        </mxCell>
        <mxCell id="K089rmbUdxv0dRks5DoR-77" style="edgeStyle=orthogonalEdgeStyle;rounded=0;orthogonalLoop=1;jettySize=auto;html=1;entryX=0.292;entryY=-0.004;entryDx=0;entryDy=0;entryPerimeter=0;" parent="WIyWlLk6GJQsqaUBKTNV-1" source="zkfFHV4jXpPFQw0GAbJ--0" target="K089rmbUdxv0dRks5DoR-68" edge="1">
          <mxGeometry relative="1" as="geometry" />
        </mxCell>
        <mxCell id="K089rmbUdxv0dRks5DoR-84" value="1" style="text;html=1;align=center;verticalAlign=middle;whiteSpace=wrap;rounded=0;" parent="WIyWlLk6GJQsqaUBKTNV-1" vertex="1">
          <mxGeometry x="184" y="380.03" width="60" height="30" as="geometry" />
        </mxCell>
        <mxCell id="K089rmbUdxv0dRks5DoR-86" value="1..*" style="text;html=1;align=center;verticalAlign=middle;whiteSpace=wrap;rounded=0;" parent="WIyWlLk6GJQsqaUBKTNV-1" vertex="1">
          <mxGeometry x="74" y="316.03" width="60" height="34" as="geometry" />
        </mxCell>
        <mxCell id="K089rmbUdxv0dRks5DoR-90" value="1" style="text;html=1;align=center;verticalAlign=middle;whiteSpace=wrap;rounded=0;" parent="WIyWlLk6GJQsqaUBKTNV-1" vertex="1">
          <mxGeometry x="247" y="180.02999999999997" width="60" height="30" as="geometry" />
        </mxCell>
        <mxCell id="K089rmbUdxv0dRks5DoR-94" value="1..*" style="text;html=1;align=center;verticalAlign=middle;whiteSpace=wrap;rounded=0;" parent="WIyWlLk6GJQsqaUBKTNV-1" vertex="1">
          <mxGeometry x="364" y="420.03" width="60" height="30" as="geometry" />
        </mxCell>
        <mxCell id="K089rmbUdxv0dRks5DoR-96" value="1..*" style="text;html=1;align=center;verticalAlign=middle;whiteSpace=wrap;rounded=0;" parent="WIyWlLk6GJQsqaUBKTNV-1" vertex="1">
          <mxGeometry x="644" y="180.02999999999997" width="60" height="30" as="geometry" />
        </mxCell>
        <mxCell id="K089rmbUdxv0dRks5DoR-97" value="1" style="text;html=1;align=center;verticalAlign=middle;whiteSpace=wrap;rounded=0;" parent="WIyWlLk6GJQsqaUBKTNV-1" vertex="1">
          <mxGeometry x="734" y="344.03" width="60" height="30" as="geometry" />
        </mxCell>
        <mxCell id="K089rmbUdxv0dRks5DoR-126" style="edgeStyle=orthogonalEdgeStyle;rounded=0;orthogonalLoop=1;jettySize=auto;html=1;fillColor=#f8cecc;strokeColor=#b85450;" parent="WIyWlLk6GJQsqaUBKTNV-1" source="K089rmbUdxv0dRks5DoR-117" target="K089rmbUdxv0dRks5DoR-5" edge="1">
          <mxGeometry relative="1" as="geometry" />
        </mxCell>
        <mxCell id="K089rmbUdxv0dRks5DoR-117" value="DetalleCompra" style="swimlane;fontStyle=0;align=center;verticalAlign=top;childLayout=stackLayout;horizontal=1;startSize=26;horizontalStack=0;resizeParent=1;resizeLast=0;collapsible=1;marginBottom=0;rounded=0;shadow=0;strokeWidth=1;fillColor=#f8cecc;strokeColor=#b85450;" parent="WIyWlLk6GJQsqaUBKTNV-1" vertex="1">
          <mxGeometry x="484" y="494.03000000000003" width="160" height="154" as="geometry">
            <mxRectangle x="550" y="140" width="160" height="26" as="alternateBounds" />
          </mxGeometry>
        </mxCell>
        <mxCell id="K089rmbUdxv0dRks5DoR-121" value="" style="line;html=1;strokeWidth=1;align=left;verticalAlign=middle;spacingTop=-1;spacingLeft=3;spacingRight=3;rotatable=0;labelPosition=right;points=[];portConstraint=eastwest;" parent="K089rmbUdxv0dRks5DoR-117" vertex="1">
          <mxGeometry y="26" width="160" height="8" as="geometry" />
        </mxCell>
        <mxCell id="K089rmbUdxv0dRks5DoR-124" style="edgeStyle=orthogonalEdgeStyle;rounded=0;orthogonalLoop=1;jettySize=auto;html=1;fillColor=#f8cecc;strokeColor=#b85450;" parent="WIyWlLk6GJQsqaUBKTNV-1" source="K089rmbUdxv0dRks5DoR-123" target="K089rmbUdxv0dRks5DoR-117" edge="1">
          <mxGeometry relative="1" as="geometry" />
        </mxCell>
        <mxCell id="K089rmbUdxv0dRks5DoR-123" value="" style="rhombus;whiteSpace=wrap;html=1;fillColor=#f8cecc;strokeColor=#b85450;" parent="WIyWlLk6GJQsqaUBKTNV-1" vertex="1">
          <mxGeometry x="452" y="320.03" width="50" height="39" as="geometry" />
        </mxCell>
        <mxCell id="K089rmbUdxv0dRks5DoR-125" value="&lt;font color=&quot;#ff9494&quot;&gt;1,,*&lt;/font&gt;" style="text;html=1;align=center;verticalAlign=middle;whiteSpace=wrap;rounded=0;" parent="WIyWlLk6GJQsqaUBKTNV-1" vertex="1">
          <mxGeometry x="564" y="464.03" width="60" height="30" as="geometry" />
        </mxCell>
        <mxCell id="K089rmbUdxv0dRks5DoR-127" value="&lt;font color=&quot;#ff3e17&quot;&gt;1&lt;/font&gt;" style="text;html=1;align=center;verticalAlign=middle;whiteSpace=wrap;rounded=0;" parent="WIyWlLk6GJQsqaUBKTNV-1" vertex="1">
          <mxGeometry x="434" y="540.0300000000001" width="60" height="30" as="geometry" />
        </mxCell>
        <mxCell id="K089rmbUdxv0dRks5DoR-129" style="edgeStyle=orthogonalEdgeStyle;rounded=0;orthogonalLoop=1;jettySize=auto;html=1;entryX=0.066;entryY=0.252;entryDx=0;entryDy=0;entryPerimeter=0;" parent="WIyWlLk6GJQsqaUBKTNV-1" source="K089rmbUdxv0dRks5DoR-9" target="K089rmbUdxv0dRks5DoR-23" edge="1">
          <mxGeometry relative="1" as="geometry">
            <Array as="points">
              <mxPoint x="55" y="1040" />
              <mxPoint x="186" y="1040" />
            </Array>
          </mxGeometry>
        </mxCell>
        <mxCell id="K089rmbUdxv0dRks5DoR-131" style="edgeStyle=orthogonalEdgeStyle;rounded=0;orthogonalLoop=1;jettySize=auto;html=1;entryX=-0.006;entryY=0.264;entryDx=0;entryDy=0;entryPerimeter=0;" parent="WIyWlLk6GJQsqaUBKTNV-1" source="K089rmbUdxv0dRks5DoR-20" target="K089rmbUdxv0dRks5DoR-27" edge="1">
          <mxGeometry relative="1" as="geometry" />
        </mxCell>
        <mxCell id="PXoqr4h4qzfgVr_eDq5i-0" value="Objetivos" style="text;html=1;align=center;verticalAlign=middle;whiteSpace=wrap;rounded=0;" vertex="1" parent="WIyWlLk6GJQsqaUBKTNV-1">
          <mxGeometry y="1169" width="60" height="30" as="geometry" />
        </mxCell>
        <mxCell id="PXoqr4h4qzfgVr_eDq5i-3" value="1. Registrar oferta con una fecha creación y una fecha de vigencia, un rubro, un importe (precio final), un cupo mínimo y una descripción de las condiciones referentes a la prestación de ésta.  " style="text;html=1;align=left;verticalAlign=middle;whiteSpace=wrap;rounded=0;" vertex="1" parent="WIyWlLk6GJQsqaUBKTNV-1">
          <mxGeometry x="23" y="1220" width="397" height="30" as="geometry" />
        </mxCell>
        <mxCell id="PXoqr4h4qzfgVr_eDq5i-4" value="2. Validar&amp;nbsp; código de cupon" style="text;html=1;align=left;verticalAlign=middle;whiteSpace=wrap;rounded=0;" vertex="1" parent="WIyWlLk6GJQsqaUBKTNV-1">
          <mxGeometry x="23" y="1260" width="341" height="30" as="geometry" />
        </mxCell>
        <mxCell id="PXoqr4h4qzfgVr_eDq5i-5" value="9. Generar reporte del importe ahorrado anual por todos los cupones que compró." style="text;html=1;align=left;verticalAlign=middle;whiteSpace=wrap;rounded=0;" vertex="1" parent="WIyWlLk6GJQsqaUBKTNV-1">
          <mxGeometry x="452" y="1340" width="328" height="30" as="geometry" />
        </mxCell>
        <mxCell id="PXoqr4h4qzfgVr_eDq5i-6" value="3. Generar un reporte de la cantidad de cupones cobrados y usados por cada oferta publicada" style="text;html=1;align=left;verticalAlign=middle;whiteSpace=wrap;rounded=0;" vertex="1" parent="WIyWlLk6GJQsqaUBKTNV-1">
          <mxGeometry x="23" y="1290" width="341" height="30" as="geometry" />
        </mxCell>
        <mxCell id="PXoqr4h4qzfgVr_eDq5i-7" value="8. Consultar todos los cupones de descuento adquiridos" style="text;html=1;align=left;verticalAlign=middle;whiteSpace=wrap;rounded=0;" vertex="1" parent="WIyWlLk6GJQsqaUBKTNV-1">
          <mxGeometry x="452" y="1310" width="328" height="30" as="geometry" />
        </mxCell>
        <mxCell id="PXoqr4h4qzfgVr_eDq5i-8" value="7. Generar y registrar compra, verificando tarjeta de credito, cantidad de cupones y condiciones aceptadas" style="text;html=1;align=left;verticalAlign=middle;whiteSpace=wrap;rounded=0;" vertex="1" parent="WIyWlLk6GJQsqaUBKTNV-1">
          <mxGeometry x="453" y="1280" width="341" height="30" as="geometry" />
        </mxCell>
        <mxCell id="PXoqr4h4qzfgVr_eDq5i-9" value="4.Registrar como empresa publicante" style="text;html=1;align=left;verticalAlign=middle;whiteSpace=wrap;rounded=0;" vertex="1" parent="WIyWlLk6GJQsqaUBKTNV-1">
          <mxGeometry x="23" y="1330" width="341" height="30" as="geometry" />
        </mxCell>
        <mxCell id="PXoqr4h4qzfgVr_eDq5i-10" value="6." style="text;html=1;align=left;verticalAlign=middle;whiteSpace=wrap;rounded=0;" vertex="1" parent="WIyWlLk6GJQsqaUBKTNV-1">
          <mxGeometry x="452" y="1250" width="341" height="30" as="geometry" />
        </mxCell>
        <mxCell id="PXoqr4h4qzfgVr_eDq5i-11" value="5.Registrar nuevo usuario con datos personales, la ciudad &lt;br/&gt;donde vive y los rubros de interés " style="text;html=1;align=left;verticalAlign=middle;whiteSpace=wrap;rounded=0;" vertex="1" parent="WIyWlLk6GJQsqaUBKTNV-1">
          <mxGeometry x="453" y="1220" width="341" height="30" as="geometry" />
        </mxCell>
        <mxCell id="PXoqr4h4qzfgVr_eDq5i-14" style="edgeStyle=orthogonalEdgeStyle;rounded=0;orthogonalLoop=1;jettySize=auto;html=1;fillColor=#f8cecc;strokeColor=#b85450;" edge="1" parent="WIyWlLk6GJQsqaUBKTNV-1" source="PXoqr4h4qzfgVr_eDq5i-12" target="PXoqr4h4qzfgVr_eDq5i-13">
          <mxGeometry relative="1" as="geometry" />
        </mxCell>
        <mxCell id="PXoqr4h4qzfgVr_eDq5i-12" value="interesado" style="shape=umlActor;verticalLabelPosition=bottom;verticalAlign=top;html=1;outlineConnect=0;align=center;fillColor=#f8cecc;strokeColor=#b85450;" vertex="1" parent="WIyWlLk6GJQsqaUBKTNV-1">
          <mxGeometry x="399" y="1050" width="30" height="60" as="geometry" />
        </mxCell>
        <mxCell id="PXoqr4h4qzfgVr_eDq5i-13" value="5.Registrar usuario" style="ellipse;whiteSpace=wrap;html=1;fillColor=#f8cecc;strokeColor=#b85450;" vertex="1" parent="WIyWlLk6GJQsqaUBKTNV-1">
          <mxGeometry x="470" y="1110" width="90" height="50" as="geometry" />
        </mxCell>
        <mxCell id="PXoqr4h4qzfgVr_eDq5i-18" style="edgeStyle=orthogonalEdgeStyle;rounded=0;orthogonalLoop=1;jettySize=auto;html=1;fillColor=#f8cecc;strokeColor=#b85450;" edge="1" parent="WIyWlLk6GJQsqaUBKTNV-1" source="PXoqr4h4qzfgVr_eDq5i-19">
          <mxGeometry relative="1" as="geometry">
            <mxPoint x="121.5" y="1135" as="targetPoint" />
          </mxGeometry>
        </mxCell>
        <mxCell id="PXoqr4h4qzfgVr_eDq5i-19" value="comercio interesado" style="shape=umlActor;verticalLabelPosition=bottom;verticalAlign=top;html=1;outlineConnect=0;align=center;fillColor=#f8cecc;strokeColor=#b85450;" vertex="1" parent="WIyWlLk6GJQsqaUBKTNV-1">
          <mxGeometry x="46.5" y="1050" width="30" height="60" as="geometry" />
        </mxCell>
        <mxCell id="PXoqr4h4qzfgVr_eDq5i-20" value="4. Registrar comercio" style="ellipse;whiteSpace=wrap;html=1;fillColor=#f8cecc;strokeColor=#b85450;" vertex="1" parent="WIyWlLk6GJQsqaUBKTNV-1">
          <mxGeometry x="94" y="1110" width="90" height="50" as="geometry" />
        </mxCell>
      </root>
    </mxGraphModel>
  </diagram>
</mxfile>
